<svg xmlns="http://www.w3.org/2000/svg" width="183.205" height="54.961"
                    viewBox="0 0 183.205 54.961">
                    <g transform="translate(-163 -667)">
                        <g transform="translate(163 667)">
                            <g transform="translate(0 0)">
                                <rect width="12.86" height="2.26" transform="translate(23.473 30.996)" fill="#666666" />
                                <rect width="10.871" height="0.867" transform="translate(24.468 33.794)"
                                    fill="#666666" />
                                <path
                                    d="M600.833,570.929l-29.9,9.867.252,1.562h59.3l.251-1.562Zm-25.742,10,25.742-8.511,25.742,8.511Z"
                                    transform="translate(-570.93 -570.929)" fill="#666666" />
                                <path d="M772.78,628.557h33.714l-16.857-5.227Zm8.46-1.281,8.4-2.6,8.4,2.6Z"
                                    transform="translate(-759.734 -619.943)" fill="#666666" />
                                <path d="M986.632,815.749v13.614h6.088V815.749Zm5.537,13.063h-4.986V816.3h4.986Z"
                                    transform="translate(-959.765 -799.926)" fill="#666666" />
                                <path d="M1008.636,838.535h-.938v-2.5h-.551v3.053h1.489Z"
                                    transform="translate(-978.954 -818.899)" fill="#666666" />
                                <path d="M1008.636,899.853h-.938v-2.5h-.551V900.4h1.489Z"
                                    transform="translate(-978.954 -876.254)" fill="#666666" />
                                <path d="M1008.636,961.17h-.938v-2.5h-.551v3.053h1.489Z"
                                    transform="translate(-978.954 -933.608)" fill="#666666" />
                                <path d="M1040.778,838.531h-.938v-2.5h-.551v3.054h1.489Z"
                                    transform="translate(-1009.019 -818.895)" fill="#666666" />
                                <path d="M1040.778,899.853h-.938v-2.5h-.551V900.4h1.489Z"
                                    transform="translate(-1009.019 -876.254)" fill="#666666" />
                                <path d="M1040.778,961.171h-.938v-2.5h-.551v3.053h1.489Z"
                                    transform="translate(-1009.019 -933.608)" fill="#666666" />
                                <path
                                    d="M734.369,1116.353v11.823h5.559v-11.823a2.781,2.781,0,0,0-1.851-2.617l.2-1.52h-2.243l.2,1.515A2.782,2.782,0,0,0,734.369,1116.353Zm2.294-3.586h.986l-.111.837-.036.272-.024.179h-.645l-.024-.181-.036-.272Zm1.642,14.858v-3.153h1.072v3.153Zm1.072-7.455h-1.072v-3.2h1.072Zm0,3.751h-1.072v-3.2h1.072Zm-4.457-3.2h1.072v3.2H734.92Zm1.623,0h1.212v3.2h-1.212Zm1.212-4.3h-1.212v-.013a.606.606,0,1,1,1.212,0Zm0,.551v3.2h-1.212v-3.2Zm-1.763,0v3.2H734.92v-3.2Zm-1.072,7.5h1.072v3.153H734.92Zm1.623,0h1.212v3.153h-1.212Zm2.835-8.054h-1.072v-.013a1.156,1.156,0,0,0-.881-1.12v-.678h.537l.041-.311a2.232,2.232,0,0,1,1.375,2.058Zm-3.026-1.811h.522v.678a1.156,1.156,0,0,0-.881,1.12v.013H734.92v-.065a2.231,2.231,0,0,1,1.389-2.063Z"
                                    transform="translate(-723.806 -1077.232)" fill="#666666" />
                                <path d="M736.894,815.749h-6.088v13.614h6.088Zm-.551,13.063h-4.986V816.3h4.986Z"
                                    transform="translate(-720.473 -799.926)" fill="#666666" />
                                <path d="M752.81,838.535h-.938v-2.5h-.551v3.053h1.489Z"
                                    transform="translate(-739.662 -818.899)" fill="#666666" />
                                <path d="M752.81,899.853h-.938v-2.5h-.551V900.4h1.489Z"
                                    transform="translate(-739.662 -876.254)" fill="#666666" />
                                <path d="M752.81,961.17h-.938v-2.5h-.551v3.053h1.489Z"
                                    transform="translate(-739.662 -933.608)" fill="#666666" />
                                <path d="M784.952,838.531h-.938v-2.5h-.551v3.054h1.489Z"
                                    transform="translate(-769.727 -818.895)" fill="#666666" />
                                <path d="M784.952,899.853h-.938v-2.5h-.551V900.4h1.489Z"
                                    transform="translate(-769.727 -876.254)" fill="#666666" />
                                <path d="M784.952,961.171h-.938v-2.5h-.551v3.053h1.489Z"
                                    transform="translate(-769.727 -933.608)" fill="#666666" />
                                <path
                                    d="M588.55,804.858V771.829a3.425,3.425,0,0,1,3.425-3.425v-1.159H580.264V768.4a3.425,3.425,0,0,1,3.425,3.425v33.029a3.425,3.425,0,0,1-3.425,3.425v1.234h11.711v-1.234A3.425,3.425,0,0,1,588.55,804.858Zm-3.037,1.371a.459.459,0,0,1-.918,0v-35.7a.459.459,0,1,1,.918,0Z"
                                    transform="translate(-579.661 -754.556)" fill="#666666" />
                                <path
                                    d="M1306.021,768.4a3.425,3.425,0,0,1,3.425,3.425v33.029a3.425,3.425,0,0,1-3.425,3.425v1.234h11.711v-1.234a3.425,3.425,0,0,1-3.425-3.425V771.829a3.425,3.425,0,0,1,3.425-3.425v-1.159h-11.711Zm4.331,2.129a.459.459,0,1,1,.918,0v35.7a.459.459,0,0,1-.918,0Z"
                                    transform="translate(-1258.512 -754.556)" fill="#666666" />
                                <path
                                    d="M1246.044,1116.353v11.823h5.559v-11.823a2.782,2.782,0,0,0-1.852-2.617l.2-1.52h-2.243l.2,1.515A2.782,2.782,0,0,0,1246.044,1116.353Zm2.294-3.586h.986l-.111.837-.036.273-.023.179h-.645l-.024-.181-.036-.272Zm1.642,14.858v-3.153h1.072v3.153Zm1.072-3.7h-1.072v-3.2h1.072Zm-2.835-3.2h1.212v3.2h-1.212Zm1.212-4.3h-1.212v-.013a.606.606,0,1,1,1.212,0Zm0,.551v3.2h-1.212v-3.2Zm-2.835,3.752h1.072v3.2h-1.072Zm4.457-.551h-1.072v-3.2h1.072Zm-3.385-3.2v3.2h-1.072v-3.2Zm-1.072,7.5h1.072v3.153h-1.072Zm1.623,0h1.212v3.153h-1.212Zm2.835-8.054h-1.072v-.013a1.156,1.156,0,0,0-.881-1.12v-.678h.537l.041-.311a2.232,2.232,0,0,1,1.375,2.058Zm-3.026-1.811h.522v.678a1.156,1.156,0,0,0-.881,1.12v.013h-1.072v-.065a2.231,2.231,0,0,1,1.389-2.063Z"
                                    transform="translate(-1202.411 -1077.232)" fill="#666666" />
                                <path d="M1248.569,815.749h-6.088v13.614h6.088Zm-.551,13.063h-4.987V816.3h4.987Z"
                                    transform="translate(-1199.078 -799.926)" fill="#666666" />
                                <path d="M1264.489,838.535h-.938v-2.5H1263v3.053h1.489Z"
                                    transform="translate(-1218.271 -818.899)" fill="#666666" />
                                <path d="M1264.489,899.853h-.938v-2.5H1263V900.4h1.489Z"
                                    transform="translate(-1218.271 -876.254)" fill="#666666" />
                                <path d="M1264.489,961.17h-.938v-2.5H1263v3.053h1.489Z"
                                    transform="translate(-1218.271 -933.608)" fill="#666666" />
                                <path d="M1296.627,838.531h-.938v-2.5h-.551v3.054h1.489Z"
                                    transform="translate(-1248.332 -818.895)" fill="#666666" />
                                <path d="M1296.627,899.853h-.938v-2.5h-.551V900.4h1.489Z"
                                    transform="translate(-1248.332 -876.254)" fill="#666666" />
                                <path d="M1296.627,961.171h-.938v-2.5h-.551v3.053h1.489Z"
                                    transform="translate(-1248.332 -933.608)" fill="#666666" />
                                <path
                                    d="M821.864,804.858V771.829a3.425,3.425,0,0,1,3.425-3.425v-1.159H813.578V768.4A3.425,3.425,0,0,1,817,771.829v33.029a3.412,3.412,0,0,1-1.076,2.488v-10.43a6.121,6.121,0,0,0-4.849-5.979l.046-.482h-2.618l.046.482a6.121,6.121,0,0,0-4.849,5.979v10.428a3.412,3.412,0,0,1-1.074-2.486V771.829a3.425,3.425,0,0,1,3.425-3.425v-1.159H794.344V768.4a3.425,3.425,0,0,1,3.425,3.425v33.029a3.425,3.425,0,0,1-3.425,3.425v1.234H806.1V796.824a3.717,3.717,0,0,1,2.671-3.561l.031.327h.734v15.927h.551V793.59h.734l.031-.327a3.716,3.716,0,0,1,2.671,3.561v12.693h11.761v-1.234A3.425,3.425,0,0,1,821.864,804.858Zm-22.271,1.371a.459.459,0,0,1-.918,0v-35.7a.459.459,0,1,1,.918,0Zm10.732-13.189h-1.018l-.016-.164-.026-.275-.115-1.2-.026-.274-.011-.12h1.406l-.011.12-.026.274-.115,1.2-.026.275Zm-6.07,14.728V796.916a5.568,5.568,0,0,1,4.351-5.424l.116,1.218a4.267,4.267,0,0,0-3.169,4.115v11.418A3.4,3.4,0,0,1,804.255,807.768Zm9.824.475V796.824a4.267,4.267,0,0,0-3.169-4.115l.116-1.218a5.568,5.568,0,0,1,4.351,5.424v10.853A3.4,3.4,0,0,1,814.078,808.242Zm4.748-2.014a.459.459,0,1,1-.917,0v-35.7a.459.459,0,1,1,.917,0Z"
                                    transform="translate(-779.905 -754.556)" fill="#666666" />
                                <g transform="translate(72.082 12.574)">
                                    <path
                                        d="M1689.646,777.913v4c0,1.567.41,2.194,1.4,2.194h.169v.41h-4.99v-.41h.193c.988,0,1.374-.627,1.374-2.194v-8.607c0-1.567-.386-2.194-1.374-2.194h-.193v-.41h4.99v.41h-.169c-.989,0-1.4.626-1.4,2.194v3.906h7.522v-3.906c0-1.567-.385-2.194-1.4-2.194h-.168v-.41h4.942v.41h-.169c-.989,0-1.4.626-1.4,2.194v8.607c0,1.567.41,2.194,1.4,2.194h.169v.41H1695.6v-.41h.168c1.013,0,1.4-.627,1.4-2.194v-4Z"
                                        transform="translate(-1686.222 -770.367)" fill="#666666" />
                                    <path
                                        d="M1978.17,771.115a2.271,2.271,0,0,0-1.9,1.109l-.289.458-3.182,4.894v4.339c0,1.567.41,2.194,1.4,2.194h.169v.41h-4.99v-.41h.265c1.012,0,1.4-.627,1.4-2.194v-4.339L1968.093,773c-.965-1.495-1.35-1.784-2.459-1.88v-.41h5.4v.41h-.289c-.7,0-1.133.265-1.133.7a1.532,1.532,0,0,0,.241.6l.265.41,2.459,3.857,2.242-3.471a2.825,2.825,0,0,0,.506-1.278c0-.531-.313-.82-.94-.82v-.41h3.785Z"
                                        transform="translate(-1947.576 -770.367)" fill="#666666" />
                                    <path
                                        d="M2232.292,784.519h-10v-.41h.144c1.085,0,1.423-.651,1.423-2.628v-7.739l.024-.627c0-1.4-.41-2-1.374-2h-.217v-.41h4.942v.41h-.145c-1.085,0-1.422.626-1.422,2.628V782.4c0,1.157.265,1.423,1.35,1.471l.8.024H2230c1.688,0,2.1-.362,2.724-2.363h.434Z"
                                        transform="translate(-2187.641 -770.367)" fill="#666666" />
                                    <path
                                        d="M2710.761,771.115h-.217c-1.133,0-1.567.6-1.567,2.146v11.331h-.41l-9.74-12.078h-.048v9.258c0,1.784.386,2.339,1.615,2.339h.193v.41h-4.195v-.41h.217c1.061,0,1.495-.7,1.495-2.387V773.67c0-1.76-.458-2.339-2.049-2.555v-.41h3.544l8.631,10.752h.048v-7.57c0-2.146-.337-2.772-1.47-2.772h-.217v-.41h4.171Z"
                                        transform="translate(-2630.789 -770.367)" fill="#666666" />
                                    <path
                                        d="M2986.658,784.109h.169c.989,0,1.4-.627,1.4-2.194v-8.607c0-1.567-.41-2.194-1.4-2.194h-.169v-.41h5.569a11.8,11.8,0,0,1,3.231.265,8.426,8.426,0,0,1,1.639.6,6.94,6.94,0,0,1,3.761,6.268,6.176,6.176,0,0,1-4.147,6.1,10.063,10.063,0,0,1-3.737.579h-6.316Zm3.423-2.676c0,2,.386,2.555,1.784,2.555h1.061c2.1,0,3.4-.506,4.436-1.76a6.6,6.6,0,0,0,1.374-4.388,5.907,5.907,0,0,0-6.605-6.678h-2.049Z"
                                        transform="translate(-2902.61 -770.367)" fill="#666666" />
                                    <path
                                        d="M3288.641,768.855h-.41l-.024-.193a3.266,3.266,0,0,0-1.157-2.1,3.065,3.065,0,0,0-1.88-.651,2.281,2.281,0,0,0-2.483,2.194,2.826,2.826,0,0,0,.892,1.953,9.144,9.144,0,0,0,1.158.892c.313.193.843.53,1.591.989a8.32,8.32,0,0,1,2.146,1.711,3.66,3.66,0,0,1,.916,2.387,3.93,3.93,0,0,1-3.93,3.929,6.439,6.439,0,0,1-2.29-.458,4.514,4.514,0,0,0-.868-.265c-.241,0-.41.169-.53.53h-.41V776.04h.41l.024.265a3.011,3.011,0,0,0,1.254,2.411,3.178,3.178,0,0,0,2.049.723,2.508,2.508,0,0,0,2.772-2.507,2.471,2.471,0,0,0-1.157-2.1,13.212,13.212,0,0,0-1.615-1.181c-.892-.578-1.471-.94-1.784-1.157a5.8,5.8,0,0,1-.988-.916,3.87,3.87,0,0,1-.892-2.531,3.5,3.5,0,0,1,3.761-3.568,5.34,5.34,0,0,1,1.929.338,2.371,2.371,0,0,0,.8.193c.193,0,.266-.073.338-.29,0-.024.024-.048.024-.1h.362Z"
                                        transform="translate(-3178.266 -765.48)" fill="#666666" />
                                    <path
                                        d="M2451.348,781.987l-.362-.024c-.747-.048-1.037-.41-1.591-2.073l-3.809-11.427h-2.838v.41h.193c.708,0,.89.3.713,1.03l-.344,1.017-.026.067.019-.047-3,8.878-.121.41c-.386,1.157-.94,1.663-1.9,1.784v.41h3.568v-.41c-.8-.048-1.109-.313-1.109-.892a5.979,5.979,0,0,1,.362-1.519l.94-2.772h4.46l1.109,3.351a3.249,3.249,0,0,1,.265,1.012c0,.531-.41.82-1.181.82v.41h4.845v-.41Zm-9.041-6,1.929-5.858h.048l1.929,5.858Z"
                                        transform="translate(-2389.675 -768.269)" fill="#666666" />
                                    <g transform="translate(0 20.32)">
                                        <path
                                            d="M1696.3,1084.963h-.385c-.338-1.447-.8-1.808-2.339-1.808H1689.6v5.98h3.351c1.519,0,1.712-.121,1.977-1.206.024-.024.024-.072.048-.145h.41v3.351h-.41c-.313-1.181-.506-1.326-2-1.326H1689.6v5.294c0,.94.145,1.012,1.447,1.012h2.049c2.073,0,2.628-.338,3.3-2.073h.41l-.627,2.58h-9.957v-.41h.193c.988,0,1.374-.627,1.374-2.194v-8.766c0-1.567-.386-2.194-1.374-2.194h-.193v-.41h9.957Z"
                                            transform="translate(-1686.222 -1082.47)" fill="#666666" />
                                        <path
                                            d="M1928.52,1083.257h-.41l-.024-.193a3.266,3.266,0,0,0-1.157-2.1,3.067,3.067,0,0,0-1.881-.651,2.28,2.28,0,0,0-2.483,2.194,2.824,2.824,0,0,0,.892,1.953,9.133,9.133,0,0,0,1.157.892c.313.193.844.53,1.591.989a8.32,8.32,0,0,1,2.146,1.711,3.659,3.659,0,0,1,.916,2.387,3.93,3.93,0,0,1-3.929,3.929,6.439,6.439,0,0,1-2.29-.458,4.529,4.529,0,0,0-.868-.265c-.241,0-.41.169-.53.531h-.41v-3.737h.41l.024.265a3.009,3.009,0,0,0,1.253,2.411,3.179,3.179,0,0,0,2.049.723,2.508,2.508,0,0,0,2.772-2.507,2.473,2.473,0,0,0-1.157-2.1,13.235,13.235,0,0,0-1.615-1.181c-.892-.579-1.471-.94-1.784-1.157a5.793,5.793,0,0,1-.989-.916,3.868,3.868,0,0,1-.892-2.531,3.5,3.5,0,0,1,3.761-3.568,5.341,5.341,0,0,1,1.929.338,2.369,2.369,0,0,0,.8.193c.193,0,.265-.073.338-.289,0-.024.024-.048.024-.1h.362Z"
                                            transform="translate(-1906.05 -1079.882)" fill="#666666" />
                                        <path
                                            d="M2115,1085.476h-.337l-.048-.193c-.41-1.35-1.085-1.976-2.869-1.976h-2.169v10.751c0,1.519.385,2.122,1.35,2.122h.217v.41h-4.894v-.41h.169c1.012,0,1.4-.627,1.4-2.194v-10.679h-2c-1.928,0-2.58.626-2.869,2.1h-.41l.1-2.789h12.271Z"
                                            transform="translate(-2075.632 -1082.438)" fill="#666666" />
                                        <path
                                            d="M2577.99,1085.476h-.337l-.048-.193c-.41-1.35-1.085-1.976-2.869-1.976h-2.169v10.751c0,1.519.385,2.122,1.35,2.122h.217v.41h-4.894v-.41h.169c1.012,0,1.4-.627,1.4-2.194v-10.679h-2c-1.929,0-2.58.626-2.869,2.1h-.41l.1-2.789h12.271Z"
                                            transform="translate(-2508.696 -1082.438)" fill="#666666" />
                                        <path
                                            d="M2826.914,1084.963h-.386c-.337-1.447-.8-1.808-2.338-1.808h-3.978v5.98h3.351c1.519,0,1.711-.121,1.977-1.206.024-.024.024-.072.048-.145h.41v3.351h-.41c-.313-1.181-.506-1.326-2-1.326h-3.375v5.294c0,.94.145,1.012,1.447,1.012h2.049c2.073,0,2.628-.338,3.3-2.073h.41l-.627,2.58h-9.957v-.41h.193c.988,0,1.374-.627,1.374-2.194v-8.766c0-1.567-.386-2.194-1.374-2.194h-.193v-.41h9.957Z"
                                            transform="translate(-2743.765 -1082.47)" fill="#666666" />
                                        <path
                                            d="M2348.9,1096.39l-.362-.024c-.747-.048-1.037-.41-1.591-2.073l-3.809-11.427H2340.3v.41h.193c.708,0,.89.3.712,1.03l-.344,1.017-.026.067.019-.047-3,8.878-.121.41c-.386,1.157-.94,1.663-1.9,1.784v.41h3.568v-.41c-.8-.048-1.109-.313-1.109-.892a5.994,5.994,0,0,1,.362-1.519l.94-2.772h4.46l1.109,3.351a3.257,3.257,0,0,1,.265,1.012c0,.53-.41.82-1.181.82v.41h4.846v-.41Zm-9.041-6,1.929-5.858h.048l1.929,5.858Z"
                                            transform="translate(-2293.845 -1082.672)" fill="#666666" />
                                    </g>
                                </g>
                            </g>
                        </g>
                    </g>
                </svg>