<svg xmlns="http://www.w3.org/2000/svg" width="25.451"
                    height="34.052" viewBox="0 0 25.451 34.052">
                    <path
                        d="M-14.1,1108q.3,0,.662.02a6.482,6.482,0,0,1,1.389.2,1.1,1.1,0,0,1,.381.172q.308.212.586,1.729.1.42.271,1.187t.314,1.394q.147.627.293,1.182.035.092.194.569a5.51,5.51,0,0,1,.212.79,1.286,1.286,0,0,1-.024.578q-.11.378-.814.79a9.6,9.6,0,0,1-1.475.7,11.873,11.873,0,0,0-1.464.663q-.693.374-.792.714a1.335,1.335,0,0,0-.029.453,4.273,4.273,0,0,0,.048.434q.028.152.133.531t.113.423a20.684,20.684,0,0,0,2,5.4,20.674,20.674,0,0,0,3.493,4.582q.033.03.3.322t.377.4q.113.1.341.273a1.332,1.332,0,0,0,.4.218.553.553,0,0,0,.153.02,1.947,1.947,0,0,0,.874-.307,11.858,11.858,0,0,0,1.343-.883,9.649,9.649,0,0,1,1.381-.872,2.132,2.132,0,0,1,.914-.29.675.675,0,0,1,.189.025,1.29,1.29,0,0,1,.5.289,5.5,5.5,0,0,1,.554.6q.318.389.377.468.391.421.843.88t1.01,1.011q.558.552.858.864,1.133,1.046,1.147,1.42a1.1,1.1,0,0,1-.058.414,6.5,6.5,0,0,1-.576,1.279,7.792,7.792,0,0,1-.773,1.181,5.284,5.284,0,0,1-2.89,1.337,8.762,8.762,0,0,1-1.869.212,6.9,6.9,0,0,1-1.931-.267,7.6,7.6,0,0,1-.974-.354,8.539,8.539,0,0,1-1.02-.552q-.556-.346-.819-.535t-.938-.693q-.674-.5-.828-.609a17.855,17.855,0,0,1-2.857-2.531,29.235,29.235,0,0,1-3.823-5.529,29.213,29.213,0,0,1-2.628-6.188,17.833,17.833,0,0,1-.611-3.767q-.007-.187-.072-1.026t-.084-1.163q-.019-.324-.014-.979a8.524,8.524,0,0,1,.079-1.157,7.618,7.618,0,0,1,.222-1.013,7.641,7.641,0,0,1,1.985-3.24,5.282,5.282,0,0,1,2.675-1.727A5.77,5.77,0,0,1-14.1,1108m0-1.34a7.031,7.031,0,0,0-.915.052,6.309,6.309,0,0,0-3.454,2.107l0,0,0,0a8.995,8.995,0,0,0-2.319,3.809,9.022,9.022,0,0,0-.261,1.191,9.925,9.925,0,0,0-.093,1.341c0,.47,0,.82.016,1.068.013.224.042.624.085,1.187.054.708.067.916.069.976v.029a19.256,19.256,0,0,0,.659,4.05,30.676,30.676,0,0,0,2.743,6.47,30.711,30.711,0,0,0,4,5.782,19.276,19.276,0,0,0,3.066,2.718l.011.008.012.008c.05.035.219.156.789.58.463.345.776.576.957.707.2.145.494.336.893.585a9.9,9.9,0,0,0,1.183.638,8.982,8.982,0,0,0,1.146.417,8.27,8.27,0,0,0,2.3.32,10.135,10.135,0,0,0,2.155-.243h.012a6.307,6.307,0,0,0,3.627-1.792,9.06,9.06,0,0,0,.91-1.381,7.715,7.715,0,0,0,.692-1.558,2.392,2.392,0,0,0,.107-.9c-.047-.657-.46-1.262-1.544-2.267-.207-.215-.487-.5-.855-.861s-.7-.7-1-1c-.275-.279-.535-.551-.775-.809-.054-.069-.153-.192-.361-.447a6.738,6.738,0,0,0-.7-.751,2.615,2.615,0,0,0-1.024-.579,2.022,2.022,0,0,0-.562-.078,3.359,3.359,0,0,0-1.53.44,10.993,10.993,0,0,0-1.573.993,10.612,10.612,0,0,1-1.191.783c-.04.022-.075.041-.107.057-.061-.048-.088-.072-.094-.078s-.075-.071-.293-.311c-.239-.264-.309-.338-.354-.381a19.429,19.429,0,0,1-3.255-4.27,19.427,19.427,0,0,1-1.867-5.035c-.013-.061-.038-.161-.133-.5-.087-.313-.1-.4-.106-.414s-.008-.044-.016-.121c.03-.018.065-.038.105-.059a10.577,10.577,0,0,1,1.3-.588,11,11,0,0,0,1.68-.8,2.816,2.816,0,0,0,1.425-1.574,2.621,2.621,0,0,0,.058-1.175,6.756,6.756,0,0,0-.262-.99c-.1-.311-.155-.462-.185-.544-.089-.34-.18-.706-.269-1.088-.1-.407-.2-.87-.31-1.375s-.2-.892-.27-1.182c-.27-1.453-.56-2.126-1.09-2.517a2.384,2.384,0,0,0-.815-.389,7.707,7.707,0,0,0-1.687-.248c-.264-.015-.512-.022-.737-.022Z"
                        transform="translate(21.156 -1106.658)" fill="#666666" />
                </svg>